@startuml
skinparam classAttributeIconSize 0
hide methods

class AssetAdministrationShell<Identifiable\nHasDataSpecification> {
  +assetInformation: AssetInformation 
  +derivedFrom: Reference[0..1] 
  +submodels: Reference[0..*] 
}
class AssetInformation {
  +assetKind: AssetKind 
  +assetType: Identifier[0..1] 
  +defaultThumbnail: Resource[0..1] 
  +globalAssetId: Identifier[0..1] 
  +specificAssetIds: SpecificAssetId[0..*] 
}
enum AssetKind <<enumeration>> {
  Instance
  NotApplicable
  Type
}
class SpecificAssetId<HasSemantics> {
  +externalSubjectId: Reference[0..1] 
  +name: LabelType 
  +value: Identifier 
}
class Submodel<Identifiable\nHasKind\nHasSemantics\nQualifiable\nHasDataSpecification> {
  +submodelElements: SubmodelElement[0..*] 
}
class Qualifier<HasSemantics> {
  +kind: QualifierKind[0..1] 
  +type: QualifierType 
  +value: ValueDataType[0..1] 
  +valueId: Reference[0..1] 
  +valueType: DataTypeDefXsd 
}
abstract class SubmodelElement<Referable\nHasSemantics\nQualifiable\nHasDataSpecification> <<abstract>> {
}
class Property<DataElement> {
}
AssetAdministrationShell ..> AssetInformation
AssetInformation ..> AssetKind
AssetInformation ..> SpecificAssetId
Submodel ..> SubmodelElement
AssetAdministrationShell --> Submodel : submodels
AssetAdministrationShell --> AssetAdministrationShell : derivedFrom
@enduml