@startuml
skinparam classAttributeIconSize 0
hide methods

abstract class HasExtensions <<abstract>> {
  +extensions: Extension[0..*] 
}
abstract class Referable <<abstract>> {
  +category: NameType[0..1] 
  +description: LangStringTextType[0..*] 
  +displayName: LangStringNameType[0..*] 
  +IdShort: IdShortType[0..1] 
}
class Extension<HasSemantics> {
  +name: NameType 
  +refersTo: Reference[0..*] 
  +value: ValueDataType[0..1] 
  +valueType: DataTypeDefXsd[0..1] 
}
HasExtensions ..> Extension
HasExtensions <|-- Referable
@enduml