@startuml
skinparam classAttributeIconSize 0
hide methods

class AssetAdministrationShell<Identifiable\nHasDataSpecification> {
  +assetInformation: AssetInformation 
  +derivedFrom: Reference[0..1] 
  +submodels: Reference[0..*] 
}
class AssetInformation {
  +assetKind: AssetKind 
  +assetType: Identifier[0..1] 
  +defaultThumbnail: Resource[0..1] 
  +globalAssetId: Identifier[0..1] 
  +specificAssetIds: SpecificAssetId[0..*] 
}
class Submodel<Identifiable\nHasKind\nHasSemantics\nQualifiable\nHasDataSpecification> {
  +submodelElements: SubmodelElement[0..*] 
}
AssetAdministrationShell ..> AssetInformation
AssetAdministrationShell --> Submodel : submodels
AssetAdministrationShell --> AssetAdministrationShell : derivedFrom
@enduml