@startuml
skinparam classAttributeIconSize 0
hide methods

class AssetInformation {
  +assetKind: AssetKind 
  +assetType: Identifier[0..1] 
  +defaultThumbnail: Resource[0..1] 
  +globalAssetId: Identifier[0..1] 
  +specificAssetIds: SpecificAssetId[0..*] 
}
class SpecificAssetId<HasSemantics> {
  +externalSubjectId: Reference[0..1] 
  +name: LabelType 
  +value: Identifier 
}
class Resource {
  +contentType: ContentType[0..1] 
  +path: PathType 
}
enum AssetKind <<enumeration>> {
  Instance
  NotApplicable
  Type
}
AssetInformation ..> AssetKind
AssetInformation ..> SpecificAssetId
AssetInformation ..> Resource
@enduml