@startuml
skinparam classAttributeIconSize 0
hide methods

abstract class DataElement<SubmodelElement> <<abstract>> {
}
class Property {
  +value: ValueDataType[0..1] 
  +valueId: Reference[0..1] 
  +valueType: DataTypeDefXsd 
}
class MultiLanguageProperty {
  +value: LangStringTextType[0..*] 
}
class Range {
  +max: ValueDataType[0..1] 
  +min: ValueDataType[0..1] 
}
class Blob {
  +contentType: ContentType 
  +value: BlobType[0..1] 
}
class File {
  +value: PathType[0..1] 
}
class ReferenceElement {
  +value: Reference[0..1] 
}
DataElement <|-- Blob
DataElement <|-- File
DataElement <|-- MultiLanguageProperty
DataElement <|-- Property
DataElement <|-- Range
DataElement <|-- ReferenceElement
@enduml