@startuml
skinparam classAttributeIconSize 0
hide methods

class AssetInformation {
  +assetKind: AssetKind 
  +assetType: Identifier[0..1] 
  +defaultThumbnail: Resource[0..1] 
  +globalAssetId: Identifier[0..1] 
  +specificAssetIds: SpecificAssetId[0..*] 
}
class SpecificAssetId<HasSemantics> {
  +externalSubjectId: Reference[0..1] 
  +name: LabelType 
  +value: Identifier 
}
class Entity {
  +entityType: EntityType 
  +statements: SubmodelElement[0..*] 
}
enum EntityType <<enumeration>> {
  CoManagedEntity
  SelfManagedEntity
}
class AssetAdministrationShell<Identifiable\nHasDataSpecification> {
  +assetInformation: AssetInformation 
  +derivedFrom: Reference[0..1] 
  +submodels: Reference[0..*] 
}
class Submodel<Identifiable\nHasKind\nHasSemantics\nQualifiable\nHasDataSpecification> {
  +submodelElements: SubmodelElement[0..*] 
}
abstract class SubmodelElement<Referable\nHasSemantics\nQualifiable\nHasDataSpecification> <<abstract>> {
}
class RelationshipElement {
  +first: Reference 
  +second: Reference 
}
AssetAdministrationShell ..> AssetInformation
AssetInformation ..> SpecificAssetId
Entity ..> SubmodelElement
Entity ..> EntityType
Entity ..> SpecificAssetId
SubmodelElement <|-- Entity
SubmodelElement <|-- RelationshipElement
Submodel ..> SubmodelElement
AssetAdministrationShell --> Submodel : submodels
AssetAdministrationShell --> AssetAdministrationShell : derivedFrom
@enduml