@startuml
skinparam classAttributeIconSize 0
hide methods

enum AasSubmodelElements <<enumeration>> {
  AnnotatedRelationshipElement
  BasicEventElement
  Blob
  Capability
  DataElement
  Entity
  EventElement
  File
  MultiLanguageProperty
  Operation
  Property
  Range
  ReferenceElement
  RelationshipElement
  SubmodelElement
  SubmodelElementList
  SubmodelElementCollection
}
abstract class AbstractLangString <<abstract>> {
  +language: Bcp47LanguageTag 
  +text: NonEmptyXmlSerializableString 
}
class AdministrativeInformation {
  +version: VersionType[0..1] 
  +revision: RevisionType[0..1] 
  +creator: Reference[0..1] 
  +templateId: Identifier[0..1] 
}
class AnnotatedRelationshipElement {
  +annotation: DataElement[0..*] 
}
class AssetAdministrationShell {
  +derivedFrom: Reference[0..1] 
  +assetInformation: AssetInformation 
  +submodel: Reference[0..*] 
}
class AssetInformation {
  +assetKind: AssetKind 
  +globalAssetId: Identifier[0..1] 
  +specificAssetId: SpecificAssetId[0..*] 
  +assetType: Identifier[0..1] 
  +defaultThumbnail: Resource[0..1] 
}
enum AssetKind <<enumeration>> {
  Type
  Instance
  Role
  NotApplicable
}
class Bcp47LanguageTag {
}
class BasicEventElement {
  +observed: Reference 
  +direction: Direction 
  +state: StateOfEvent 
  +messageTopic: MessageTopicType[0..1] 
  +messageBroker: Reference[0..1] 
  +lastUpdate: DateTime[0..1] 
  +minInterval: Duration[0..1] 
  +maxInterval: Duration[0..1] 
}
class Blob {
  +value: BlobType[0..1] 
  +contentType: ContentType 
}
class BlobType {
}
class Capability {
}
class ConceptDescription {
  +isCaseOf: Reference[0..*] 
}
class ContentType {
}
abstract class DataElement <<abstract>> {
}
class DataSpecificationIec61360 {
  +preferredName: MultiLanguagePreferredNameTypeIec61360 
  +shortName: MultiLanguageShortNameTypeIec61360[0..1] 
  +unit: NonEmptyXmlSerializableString[0..1] 
  +unitId: Reference[0..1] 
  +sourceOfDefinition: NonEmptyXmlSerializableString[0..1] 
  +symbol: NonEmptyXmlSerializableString[0..1] 
  +dataType: DataTypeIec61360[0..1] 
  +definition: MultiLanguageDefinitionTypeIec61360[0..1] 
  +valueFormat: NonEmptyXmlSerializableString[0..1] 
  +valueList: ValueList[0..1] 
  +value: ValueTypeIec61360[0..1] 
  +levelType: LevelType[0..1] 
}
abstract class DataSpecificationContent <<abstract>> {
}
enum DataTypeIec61360 <<enumeration>> {
  DATE
  STRING
  STRING_TRANSLATABLE
  INTEGER_MEASURE
  INTEGER_COUNT
  INTEGER_CURRENCY
  REAL_MEASURE
  REAL_COUNT
  REAL_CURRENCY
  BOOLEAN
  IRI
  IRDI
  RATIONAL
  RATIONAL_MEASURE
  TIME
  TIMESTAMP
  FILE
  HTML
  BLOB
}
enum DataTypeDefXsd <<enumeration>> {
  xs:anyURI
  xs:base64Binary
  xs:boolean
  xs:byte
  xs:date
  xs:dateTime
  xs:decimal
  xs:double
  xs:duration
  xs:float
  xs:gDay
  xs:gMonth
  xs:gMonthDay
  xs:gYear
  xs:gYearMonth
  xs:hexBinary
  xs:int
  xs:integer
  xs:long
  xs:negativeInteger
  xs:nonNegativeInteger
  xs:nonPositiveInteger
  xs:positiveInteger
  xs:short
  xs:string
  xs:time
  xs:unsignedByte
  xs:unsignedInt
  xs:unsignedLong
  xs:unsignedShort
}
class DateTime {
}
enum Direction <<enumeration>> {
  input
  output
}
class Duration {
}
class EmbeddedDataSpecification {
  +dataSpecificationContent: DataSpecificationContent 
  +dataSpecification: Reference[0..1] 
}
class Entity {
  +statement: SubmodelElement[0..*] 
  +entityType: EntityType[0..1] 
  +globalAssetId: Identifier[0..1] 
  +specificAssetId: SpecificAssetId[0..*] 
}
enum EntityType <<enumeration>> {
  CoManagedEntity
  SelfManagedEntity
}
class Environment {
  +assetAdministrationShell: AssetAdministrationShell[0..*] 
  +submodel: Submodel[0..*] 
  +conceptDescription: ConceptDescription[0..*] 
}
abstract class EventElement <<abstract>> {
}
class EventPayload {
  +source: Reference 
  +sourceSemanticId: Reference[0..1] 
  +observableReference: Reference 
  +observableSemanticId: Reference[0..1] 
  +topic: MessageTopicType[0..1] 
  +subjectId: Reference[0..1] 
  +timeStamp: DateTime 
  +payload: BlobType[0..1] 
}
class Extension {
  +name: NameType 
  +valueType: DataTypeDefXsd[0..1] 
  +value: ValueDataType[0..1] 
  +refersTo: Reference[0..*] 
}
class File {
  +value: PathType[0..1] 
  +contentType: ContentType 
}
abstract class HasDataSpecification <<abstract>> {
  +embeddedDataSpecification: EmbeddedDataSpecification[0..*] 
}
abstract class HasExtensions <<abstract>> {
  +extension: Extension[0..*] 
}
abstract class HasKind <<abstract>> {
  +kind: ModellingKind[0..1] 
}
abstract class HasSemantics <<abstract>> {
  +semanticId: Reference[0..1] 
  +supplementalSemanticId: Reference[0..*] 
}
class IdShortType {
}
abstract class Identifiable <<abstract>> {
  +administration: AdministrativeInformation[0..1] 
  +id: Identifier 
}
class Identifier {
}
class Key {
  +type: KeyTypes 
  +value: Identifier 
}
enum KeyTypes <<enumeration>> {
  AnnotatedRelationshipElement
  AssetAdministrationShell
  BasicEventElement
  Blob
  Capability
  ConceptDescription
  DataElement
  Entity
  EventElement
  File
  FragmentReference
  GlobalReference
  Identifiable
  MultiLanguageProperty
  Operation
  Property
  Range
  Referable
  ReferenceElement
  RelationshipElement
  Submodel
  SubmodelElement
  SubmodelElementCollection
  SubmodelElementList
}
class LabelType {
}
class MultiLanguageDefinitionTypeIec61360 {
}
class MultiLanguageNameType {
}
class MultiLanguagePreferredNameTypeIec61360 {
}
class MultiLanguageShortNameTypeIec61360 {
}
class MultiLanguageTextType {
}
class LevelType {
  +min: bool 
  +nom: bool 
  +typ: bool 
  +max: bool 
}
class MessageTopicType {
}
enum ModellingKind <<enumeration>> {
  Template
  Instance
}
class MultiLanguageProperty {
  +value: MultiLanguageTextType[0..1] 
  +valueId: Reference[0..1] 
}
class NameType {
}
class NonEmptyXmlSerializableString {
}
class Operation {
  +inputVariable: OperationVariable[0..*] 
  +outputVariable: OperationVariable[0..*] 
  +inoutputVariable: OperationVariable[0..*] 
}
class OperationVariable {
  +value: SubmodelElement 
}
class PathType {
}
class Property {
  +valueType: DataTypeDefXsd 
  +value: ValueDataType[0..1] 
  +valueId: Reference[0..1] 
}
abstract class Qualifiable <<abstract>> {
  +qualifier: Qualifier[0..*] 
}
class Qualifier {
  +kind: QualifierKind[0..1] 
  +type: QualifierType 
  +valueType: DataTypeDefXsd 
  +value: ValueDataType[0..1] 
  +valueId: Reference[0..1] 
}
enum QualifierKind <<enumeration>> {
  ValueQualifier
  ConceptQualifier
  TemplateQualifier
}
class QualifierType {
}
class Range {
  +valueType: DataTypeDefXsd 
  +min: ValueDataType[0..1] 
  +max: ValueDataType[0..1] 
}
abstract class Referable <<abstract>> {
  +category: NameType[0..1] 
  +idShort: IdShortType[0..1] 
  +displayName: MultiLanguageNameType[0..1] 
  +description: MultiLanguageTextType[0..1] 
}
class Reference {
  +type: ReferenceTypes 
  +referredSemanticId: Reference[0..1] 
  +key: Key[1..*] 
}
class ReferenceElement {
  +value: Reference[0..1] 
}
enum ReferenceTypes <<enumeration>> {
  ExternalReference
  ModelReference
}
class RelationshipElement {
  +first: Reference 
  +second: Reference 
}
class Resource {
  +path: PathType 
  +contentType: ContentType[0..1] 
}
class RevisionType {
}
class SpecificAssetId {
  +name: LabelType 
  +value: Identifier 
  +externalSubjectId: Reference[0..1] 
}
enum StateOfEvent <<enumeration>> {
  on
  off
}
class Submodel {
  +submodelElement: SubmodelElement[0..*] 
}
abstract class SubmodelElement <<abstract>> {
}
class SubmodelElementCollection {
  +value: SubmodelElement[0..*] 
}
class SubmodelElementList {
  +orderRelevant: bool[0..1] 
  +semanticIdListElement: Reference[0..1] 
  +typeValueListElement: AasSubmodelElements 
  +valueTypeListElement: DataTypeDefXsd[0..1] 
  +value: SubmodelElement[0..*] 
}
class ValueDataType {
}
class ValueList {
  +valueReferencePair: ValueReferencePair[1..*] 
}
class ValueReferencePair {
  +value: ValueTypeIec61360 
  +valueId: Reference 
}
class ValueTypeIec61360 {
}
class VersionType {
}
AbstractLangString ..> Bcp47LanguageTag
AbstractLangString ..> NonEmptyXmlSerializableString
AdministrativeInformation ..> VersionType
AdministrativeInformation ..> RevisionType
AdministrativeInformation ..> Reference
AdministrativeInformation ..> Identifier
HasDataSpecification <|-- AdministrativeInformation
AnnotatedRelationshipElement ..> DataElement
RelationshipElement <|-- AnnotatedRelationshipElement
AssetAdministrationShell ..> Reference
AssetAdministrationShell ..> AssetInformation
Identifiable <|-- AssetAdministrationShell
HasDataSpecification <|-- AssetAdministrationShell
AssetInformation ..> AssetKind
AssetInformation ..> Identifier
AssetInformation ..> SpecificAssetId
AssetInformation ..> Resource
BasicEventElement ..> Reference
BasicEventElement ..> Direction
BasicEventElement ..> StateOfEvent
BasicEventElement ..> MessageTopicType
BasicEventElement ..> DateTime
BasicEventElement ..> Duration
EventElement <|-- BasicEventElement
Blob ..> BlobType
Blob ..> ContentType
DataElement <|-- Blob
SubmodelElement <|-- Capability
ConceptDescription ..> Reference
Identifiable <|-- ConceptDescription
HasDataSpecification <|-- ConceptDescription
NonEmptyXmlSerializableString <|-- ContentType
SubmodelElement <|-- DataElement
DataSpecificationIec61360 ..> MultiLanguagePreferredNameTypeIec61360
DataSpecificationIec61360 ..> MultiLanguageShortNameTypeIec61360
DataSpecificationIec61360 ..> NonEmptyXmlSerializableString
DataSpecificationIec61360 ..> Reference
DataSpecificationIec61360 ..> DataTypeIec61360
DataSpecificationIec61360 ..> MultiLanguageDefinitionTypeIec61360
DataSpecificationIec61360 ..> ValueList
DataSpecificationIec61360 ..> ValueTypeIec61360
DataSpecificationIec61360 ..> LevelType
DataSpecificationContent <|-- DataSpecificationIec61360
EmbeddedDataSpecification ..> DataSpecificationContent
EmbeddedDataSpecification ..> Reference
Entity ..> SubmodelElement
Entity ..> EntityType
Entity ..> Identifier
Entity ..> SpecificAssetId
SubmodelElement <|-- Entity
Environment ..> AssetAdministrationShell
Environment ..> Submodel
Environment ..> ConceptDescription
SubmodelElement <|-- EventElement
EventPayload ..> Reference
EventPayload ..> MessageTopicType
EventPayload ..> DateTime
EventPayload ..> BlobType
Extension ..> NameType
Extension ..> DataTypeDefXsd
Extension ..> ValueDataType
Extension ..> Reference
HasSemantics <|-- Extension
File ..> PathType
File ..> ContentType
DataElement <|-- File
HasDataSpecification ..> EmbeddedDataSpecification
HasExtensions ..> Extension
HasKind ..> ModellingKind
HasSemantics ..> Reference
NameType <|-- IdShortType
Identifiable ..> AdministrativeInformation
Identifiable ..> Identifier
Referable <|-- Identifiable
NonEmptyXmlSerializableString <|-- Identifier
Key ..> KeyTypes
Key ..> Identifier
NonEmptyXmlSerializableString <|-- LabelType
AbstractLangString <|-- MultiLanguageDefinitionTypeIec61360
AbstractLangString <|-- MultiLanguageNameType
AbstractLangString <|-- MultiLanguagePreferredNameTypeIec61360
AbstractLangString <|-- MultiLanguageShortNameTypeIec61360
AbstractLangString <|-- MultiLanguageTextType
NonEmptyXmlSerializableString <|-- MessageTopicType
MultiLanguageProperty ..> MultiLanguageTextType
MultiLanguageProperty ..> Reference
DataElement <|-- MultiLanguageProperty
NonEmptyXmlSerializableString <|-- NameType
Operation ..> OperationVariable
SubmodelElement <|-- Operation
OperationVariable ..> SubmodelElement
Identifier <|-- PathType
Property ..> DataTypeDefXsd
Property ..> ValueDataType
Property ..> Reference
DataElement <|-- Property
Qualifiable ..> Qualifier
Qualifier ..> QualifierKind
Qualifier ..> QualifierType
Qualifier ..> DataTypeDefXsd
Qualifier ..> ValueDataType
Qualifier ..> Reference
HasSemantics <|-- Qualifier
NameType <|-- QualifierType
Range ..> DataTypeDefXsd
Range ..> ValueDataType
DataElement <|-- Range
Referable ..> NameType
Referable ..> IdShortType
Referable ..> MultiLanguageNameType
Referable ..> MultiLanguageTextType
HasExtensions <|-- Referable
Reference ..> ReferenceTypes
Reference ..> Reference
Reference ..> Key
ReferenceElement ..> Reference
DataElement <|-- ReferenceElement
RelationshipElement ..> Reference
SubmodelElement <|-- RelationshipElement
Resource ..> PathType
Resource ..> ContentType
NonEmptyXmlSerializableString <|-- RevisionType
SpecificAssetId ..> LabelType
SpecificAssetId ..> Identifier
SpecificAssetId ..> Reference
HasSemantics <|-- SpecificAssetId
Submodel ..> SubmodelElement
Identifiable <|-- Submodel
HasKind <|-- Submodel
HasSemantics <|-- Submodel
Qualifiable <|-- Submodel
HasDataSpecification <|-- Submodel
Referable <|-- SubmodelElement
HasSemantics <|-- SubmodelElement
Qualifiable <|-- SubmodelElement
HasDataSpecification <|-- SubmodelElement
SubmodelElementCollection ..> SubmodelElement
SubmodelElement <|-- SubmodelElementCollection
SubmodelElementList ..> Reference
SubmodelElementList ..> AasSubmodelElements
SubmodelElementList ..> DataTypeDefXsd
SubmodelElementList ..> SubmodelElement
SubmodelElement <|-- SubmodelElementList
ValueList ..> ValueReferencePair
ValueReferencePair ..> ValueTypeIec61360
ValueReferencePair ..> Reference
NonEmptyXmlSerializableString <|-- ValueTypeIec61360
NonEmptyXmlSerializableString <|-- VersionType
AssetAdministrationShell --> Submodel : submodel:ref
AssetAdministrationShell --> AssetAdministrationShell : derivedFrom:ref
BasicEventElement --> Referable : messageBroker:ref
BasicEventElement --> Referable : observed:ref
EventPayload --> Referable : observableReference:ref
EventPayload --> EventElement : source:ref
@enduml